<?xml version="1.0" encoding="UTF-8"?>
<svg id="Layer_1" data-name="Layer 1" xmlns="http://www.w3.org/2000/svg" xmlns:xlink="http://www.w3.org/1999/xlink" viewBox="0 0 72 72">
  <defs>
    <style>
      .cls-1 {
        fill: #fff;
      }

      .cls-2 {
        fill: url(#New_Gradient_Swatch_1);
      }
    </style>
    <linearGradient id="New_Gradient_Swatch_1" data-name="New Gradient Swatch 1" x1="77.63" y1="52.15" x2="11.02" y2="22.65" gradientUnits="userSpaceOnUse">
      <stop offset="0" stop-color="#8b5cf6"/>
      <stop offset=".29" stop-color="#443167"/>
      <stop offset=".68" stop-color="#8b5cf6"/>
      <stop offset="1" stop-color="#ad56f2"/>
    </linearGradient>
  </defs>
  <rect class="cls-1" x="1.48" y="1.43" width="69.03" height="69.14" rx="14" ry="14"/>
  <path class="cls-2" d="M61.65,27.85v9.28l-5.61,4.51c-4.14,3.34-9.95,3.35-14.11.05l-3.39-2.69c-1.49-1.18-3.58-1.18-5.07,0l-3.38,2.69c-1.06.84-2.23,1.46-3.44,1.88-1.16.39-2.37.58-3.58.58-1.43,0-2.85-.27-4.21-.82-1.01-.42-1.99-.98-2.88-1.7l-5.62-4.52v-9.27l10.14,8.17c1.5,1.2,3.59,1.21,5.09.02l3.39-2.69c4.14-3.28,9.92-3.28,14.06,0l3.38,2.69c1.5,1.19,3.59,1.18,5.08-.02l10.15-8.17Z"/>
</svg>