<?xml version="1.0" encoding="UTF-8"?>
<svg id="Layer_1" data-name="Layer 1" xmlns="http://www.w3.org/2000/svg" xmlns:xlink="http://www.w3.org/1999/xlink" viewBox="0 0 420.66 50">
  <defs>
    <style>
      .cls-1 {
        fill: #161324;
      }

      .cls-2 {
        fill: url(#New_Gradient_Swatch_1);
      }
    </style>
    <linearGradient id="New_Gradient_Swatch_1" data-name="New Gradient Swatch 1" x1="102.99" y1="49.67" x2="1.02" y2="4.51" gradientUnits="userSpaceOnUse">
      <stop offset="0" stop-color="#8b5cf6"/>
      <stop offset=".29" stop-color="#443167"/>
      <stop offset=".68" stop-color="#8b5cf6"/>
      <stop offset="1" stop-color="#ad56f2"/>
    </linearGradient>
  </defs>
  <path class="cls-2" d="M78.53,12.46v14.21l-8.59,6.91c-6.34,5.11-15.23,5.13-21.6.08l-5.19-4.12c-2.28-1.81-5.47-1.81-7.76,0l-5.18,4.12c-1.62,1.28-3.41,2.24-5.27,2.87-1.78.6-3.63.89-5.49.89-2.19,0-4.37-.41-6.44-1.25-1.55-.64-3.05-1.49-4.4-2.6L0,26.66v-14.2l15.53,12.5c2.3,1.84,5.5,1.85,7.79.02l5.19-4.12c6.33-5.01,15.18-5.01,21.52,0l5.18,4.12c2.3,1.82,5.5,1.81,7.78-.02l15.54-12.5Z"/>
  <g>
    <path class="cls-1" d="M113.49,10.8v2.93c-.85-.99-1.81-1.77-2.87-2.35-1.5-.78-3.26-1.19-5.27-1.19-2.56,0-4.84.58-6.86,1.74-2.01,1.16-3.6,2.76-4.76,4.78-1.16,2.05-1.74,4.37-1.74,6.99s.58,4.96,1.74,7.03c1.16,2.08,2.76,3.68,4.81,4.88,2.05,1.16,4.37,1.76,6.96,1.76,2.01,0,3.77-.39,5.27-1.16.82-.41,1.55-.94,2.2-1.59v2.64c0,1.19-.24,2.23-.73,3.12-.49.89-1.21,1.55-2.13,2.01-.92.46-2.01.7-3.28.7-1.6,0-2.99-.38-4.15-1.13-1.16-.75-1.93-1.77-2.3-3.07l-7.11,2.51c.58,1.74,1.54,3.24,2.85,4.52,1.31,1.28,2.88,2.29,4.73,3,1.84.72,3.84,1.07,5.99,1.07,2.7,0,5.08-.55,7.15-1.64,2.06-1.09,3.68-2.61,4.88-4.52,1.19-1.94,1.79-4.13,1.79-6.58V10.8h-7.16ZM112.19,27.28c-.53.99-1.28,1.76-2.23,2.3s-2.08.82-3.38.82-2.44-.27-3.45-.84c-1.01-.56-1.79-1.35-2.35-2.34-.56-.99-.85-2.13-.85-3.43s.29-2.49.85-3.51c.56-.99,1.35-1.79,2.35-2.35,1.01-.56,2.15-.84,3.45-.84s2.37.27,3.33.84,1.71,1.36,2.25,2.35c.55,1.02.82,2.18.82,3.51s-.26,2.49-.78,3.48Z"/>
    <path class="cls-1" d="M142.66,10.49v6.65h-2.41c-1.88,0-3.39.56-4.55,1.71-1.16,1.16-1.74,2.76-1.74,4.84v15.05h-7.68V10.8h7.16v4.16c.61-1.52,1.47-2.59,2.54-3.22,1.42-.82,3.09-1.25,5.03-1.25h1.64Z"/>
    <path class="cls-1" d="M159.91,39.36c-2.76,0-5.28-.63-7.55-1.89-2.27-1.26-4.08-2.99-5.43-5.19s-2.02-4.7-2.02-7.5.67-5.34,2.02-7.52c1.35-2.18,3.16-3.91,5.43-5.17,2.27-1.26,4.78-1.89,7.55-1.89s5.27.63,7.52,1.89c2.25,1.26,4.05,2.99,5.4,5.17,1.35,2.18,2.02,4.69,2.02,7.52s-.67,5.3-2.02,7.5c-1.35,2.2-3.15,3.93-5.4,5.19-2.25,1.26-4.76,1.89-7.52,1.89ZM159.91,32.45c1.4,0,2.62-.32,3.66-.97s1.86-1.55,2.46-2.71c.6-1.16.89-2.49.89-3.99s-.3-2.82-.89-3.96c-.6-1.14-1.42-2.05-2.46-2.71-1.04-.66-2.26-1-3.66-1s-2.63.33-3.69,1c-1.06.67-1.89,1.57-2.48,2.71-.6,1.14-.9,2.46-.9,3.96s.3,2.83.9,3.99c.6,1.16,1.42,2.06,2.48,2.71,1.06.65,2.29.97,3.69.97Z"/>
    <polygon class="cls-1" points="222.14 10.8 212.47 38.74 205.81 38.74 199.37 20.83 192.87 38.74 186.21 38.74 176.59 10.8 184.52 10.8 189.97 27.04 196.04 10.8 202.69 10.8 208.71 27.02 214.16 10.8 222.14 10.8"/>
    <path class="cls-1" d="M238.98,39.05c-3.38,0-6-.91-7.86-2.74s-2.79-4.38-2.79-7.65v-11.21h-4.71v-6.65h.26c1.43,0,2.53-.36,3.3-1.07s1.15-1.79,1.15-3.23v-2.05h7.68v6.35h6.55v6.65h-6.55v10.7c0,.96.17,1.75.51,2.38.34.63.87,1.1,1.59,1.41.72.31,1.6.46,2.66.46.24,0,.51-.02.82-.05.31-.03.63-.07.97-.1v6.5c-.51.07-1.09.14-1.74.2s-1.26.1-1.84.1Z"/>
    <path class="cls-1" d="M272.65,20.78v17.96h-7.68v-16.33c0-1.09-.2-2.03-.63-2.81-.43-.78-1.02-1.4-1.79-1.84-.77-.44-1.67-.67-2.7-.67s-1.88.22-2.66.67c-.78.44-1.38,1.06-1.81,1.84-.43.78-.65,1.72-.65,2.81v16.33h-7.68V0h7.68v13.39c.58-.84,1.33-1.5,2.23-2.01,1.45-.78,3.14-1.19,5.08-1.19,2.12,0,3.97.44,5.56,1.33,1.59.89,2.81,2.13,3.7,3.7.89,1.59,1.33,3.45,1.33,5.56Z"/>
    <polygon class="cls-1" points="330.23 10.8 320.55 38.74 313.9 38.74 307.45 20.83 300.95 38.74 294.3 38.74 284.68 10.8 292.61 10.8 298.05 27.04 304.13 10.8 310.78 10.8 316.8 27.02 322.24 10.8 330.23 10.8"/>
    <path class="cls-1" d="M358.94,18.54c-.61-1.64-1.5-3.1-2.68-4.37-1.18-1.26-2.63-2.23-4.33-2.95-1.71-.7-3.67-1.04-5.89-1.04-2.66,0-5.05.63-7.16,1.89-2.12,1.26-3.79,2.99-5.03,5.17-1.25,2.18-1.88,4.67-1.88,7.47s.6,5.15,1.79,7.37c1.19,2.22,2.88,3.99,5.07,5.29,2.18,1.33,4.76,1.98,7.73,1.98,1.91,0,3.67-.27,5.27-.84,1.6-.56,3-1.36,4.18-2.39,1.18-1.02,2.03-2.22,2.58-3.58l-6.14-2.92c-.55.96-1.3,1.71-2.27,2.25-.97.55-2.15.82-3.51.82-1.5,0-2.78-.34-3.84-1.01-1.06-.65-1.84-1.59-2.35-2.78-.27-.61-.44-1.28-.53-2h19.57c.14-.38.24-.84.29-1.35.05-.55.07-1.07.07-1.62,0-1.94-.31-3.74-.92-5.41ZM340.46,20.16c.48-1.26,1.19-2.22,2.15-2.87.96-.65,2.1-.97,3.43-.97s2.52.32,3.46,1.01c.94.65,1.59,1.57,1.96,2.71.14.39.22.8.26,1.25h-11.58c.09-.39.19-.77.32-1.13Z"/>
    <path class="cls-1" d="M392.41,17.37c-1.26-2.2-2.97-3.94-5.12-5.24-2.15-1.3-4.55-1.94-7.22-1.94-2.05,0-3.86.39-5.44,1.14-.99.48-1.86,1.09-2.59,1.84V0h-7.68v38.74h7.16v-2.68c.87.96,1.94,1.69,3.21,2.25,1.62.68,3.38,1.04,5.29,1.04,2.73,0,5.17-.65,7.32-1.94s3.86-3.05,5.1-5.27c1.25-2.22,1.86-4.67,1.86-7.37s-.63-5.2-1.89-7.4ZM385.45,28.76c-.61,1.16-1.47,2.06-2.56,2.71-1.09.65-2.35.97-3.79.97s-2.58-.32-3.65-.97c-1.07-.65-1.91-1.55-2.51-2.71-.6-1.16-.9-2.49-.9-3.99s.31-2.83.9-3.99c.6-1.16,1.43-2.06,2.51-2.71,1.07-.65,2.29-.97,3.65-.97,1.43,0,2.7.32,3.79.99,1.09.68,1.94,1.59,2.56,2.73.61,1.14.92,2.46.92,3.96s-.31,2.83-.92,3.99Z"/>
    <path class="cls-1" d="M409.76,39.36c-3.07,0-5.74-.72-8.01-2.18-2.27-1.45-3.81-3.4-4.63-5.86l5.63-2.66c.72,1.5,1.69,2.68,2.92,3.53s2.59,1.28,4.09,1.28c1.09,0,1.93-.22,2.51-.67.58-.44.87-1.06.87-1.84,0-.41-.1-.76-.31-1.05s-.51-.55-.92-.79-.92-.44-1.54-.61l-4.76-1.33c-2.29-.65-4.04-1.7-5.27-3.15-1.23-1.45-1.84-3.16-1.84-5.14,0-1.74.44-3.26,1.33-4.55.89-1.3,2.13-2.31,3.74-3.05,1.6-.73,3.45-1.1,5.53-1.1,2.73,0,5.13.64,7.19,1.92s3.52,3.08,4.38,5.4l-5.68,2.66c-.41-1.16-1.15-2.09-2.23-2.79-1.07-.7-2.3-1.05-3.66-1.05-.99,0-1.77.2-2.33.61-.56.41-.84.97-.84,1.69,0,.38.1.72.31,1.02.2.31.54.58,1,.82.46.24,1.03.46,1.71.66l4.45,1.33c2.32.68,4.09,1.71,5.32,3.1,1.23,1.38,1.84,3.08,1.84,5.09,0,1.74-.45,3.26-1.36,4.55-.9,1.3-2.16,2.31-3.76,3.05-1.6.73-3.5,1.1-5.68,1.1Z"/>
  </g>
</svg>